<?xml version="1.0" encoding="UTF-8"?>
<svg id="Layer_1" xmlns="http://www.w3.org/2000/svg" version="1.1" viewBox="0 0 26 26">
  <!-- Generator: Adobe Illustrator 29.5.0, SVG Export Plug-In . SVG Version: 2.1.0 Build 137)  -->
  <defs>
    <style>
      .st0 {
        fill: #13253c;
      }

      .st1, .st2 {
        fill: #fff;
      }

      .st2 {
        isolation: isolate;
        opacity: .6;
      }
    </style>
  </defs>
  <g id="ACIN">
    <path class="st1" d="M21.3,9.5c-.5-1.1-1.1-2-2-2.8s-1.8-1.5-2.8-1.9c-2.2-.9-4.8-.9-6.9,0-1.1.5-2,1.1-2.8,2s-1.5,1.8-1.9,2.8-.7,2.3-.7,3.4,0,.2,0,.3v.3h3.7v-.6c0-.7.2-1.4.4-2s.6-1.2,1.1-1.7c.5-.5,1.1-.8,1.6-1.1,1.2-.6,2.8-.6,4.1,0,.6.2,1.2.6,1.7,1.1.5.5.8,1.1,1.1,1.7.2.6.4,1.3.4,2h0v8.9h3.7v-8.9h0c0-1.3-.2-2.5-.7-3.6h0Z"/>
    <path id="Sombra" class="st2" d="M13,18.2c-.7,0-1.4-.2-2-.4s-1.2-.7-1.6-1.1c-.5-.5-.8-1.1-1.1-1.6-.2-.5-.3-1.1-.4-1.6v-.3h-3.7v.4c0,1.1.3,2.1.7,3,.5,1.1,1.1,2,1.9,2.8s1.8,1.5,2.8,2,2.3.7,3.5.7h.6v-3.7h-.6Z"/>
  </g>
  <path class="st0" d="M3.7,0h18.5c2.1,0,3.7,1.7,3.7,3.7v18.5c0,2.1-1.7,3.7-3.7,3.7H3.7C1.7,26,0,24.3,0,22.3V3.7C0,1.7,1.7,0,3.7,0Z"/>
  <g id="ACIN1">
    <path class="st1" d="M21.3,9.5c-.5-1.1-1.1-2-2-2.8s-1.8-1.5-2.8-1.9c-2.2-.9-4.8-.9-6.9,0-1.1.5-2,1.1-2.8,2s-1.5,1.8-1.9,2.8-.7,2.3-.7,3.4,0,.2,0,.3v.3h3.7v-.6c0-.7.2-1.4.4-2s.6-1.2,1.1-1.7c.5-.5,1.1-.8,1.6-1.1,1.2-.6,2.8-.6,4.1,0,.6.2,1.2.6,1.7,1.1.5.5.8,1.1,1.1,1.7.2.6.4,1.3.4,2h0v8.9h3.7v-8.9h0c0-1.3-.2-2.5-.7-3.6h0Z"/>
    <path id="Sombra1" class="st2" d="M13,18.2c-.7,0-1.4-.2-2-.4s-1.2-.7-1.6-1.1c-.5-.5-.8-1.1-1.1-1.6-.2-.5-.3-1.1-.4-1.6v-.3h-3.7v.4c0,1.1.3,2.1.7,3,.5,1.1,1.1,2,1.9,2.8s1.8,1.5,2.8,2,2.3.7,3.5.7h.6v-3.7h-.6Z"/>
  </g>
</svg>